
        <svg xmlns="http://www.w3.org/2000/svg" xmlns:xlink="http://www.w3.org/1999/xlink" version="1.1" width="3162.162162162162" 
        height="733.5471001267" viewBox="0 0 3162.162162162162 733.5471001267">
			
			<g transform="scale(8.108108108108109) translate(10, 10)">
				<defs id="SvgjsDefs1090"></defs><g id="SvgjsG1091" featureKey="symbolFeature-0" transform="matrix(0.7905138067480892,0,0,0.7905138067480892,-4.545454388801513,-4.659621639770933)" fill="#4b60ed"><path xmlns="http://www.w3.org/2000/svg" d="M40.79,61.54a36.54,36.54,0,0,1-10.86-4.23L17,62.34h0L7,66.24l9.79,4.35Z"></path><path xmlns="http://www.w3.org/2000/svg" d="M66.78,55.47c-2.62,3.24-7.22,5.51-12.69,6.44A7.93,7.93,0,0,0,54.15,66a4.52,4.52,0,0,1-1,4.2l41.15-15.7V43L68.67,52.64A19.11,19.11,0,0,1,66.78,55.47Z"></path><path xmlns="http://www.w3.org/2000/svg" d="M42.13,68.4c1.22-.92,2.1-1.59,2-3.35a18.1,18.1,0,0,1,0-2.95l-.44-.05-25,9.41L33,77.84l6.12-2.34a1.23,1.23,0,0,1-.36-.86A6.89,6.89,0,0,1,42.13,68.4Z"></path><path xmlns="http://www.w3.org/2000/svg" d="M42.53,75.82,35,78.7l15,6.68L94.25,65.71V56.09L49.36,73.21A23,23,0,0,1,42.53,75.82Z"></path><path xmlns="http://www.w3.org/2000/svg" d="M80.41,38.93c.46,0,1.86-.21,2.36.73.2.38.29,1-.46,1.91-1.4,1.65-5.56,3.89-10.6,3.89-.28,0-.57,0-.86,0a17.86,17.86,0,0,1-1.24,5.27l24.64-9.28V32.29l-17,6.63A16.2,16.2,0,0,0,80.41,38.93Z"></path><polygon xmlns="http://www.w3.org/2000/svg" points="5.75 75.71 49.25 95.04 49.25 86.68 5.75 67.35 5.75 75.71"></polygon><path xmlns="http://www.w3.org/2000/svg" d="M79.53,41.88a5.64,5.64,0,0,0,1.79-1.47,3,3,0,0,0-.73,0c-2.91.34-6.88-.4-10.13-1.22a22.79,22.79,0,0,1,.46,4.72A15.67,15.67,0,0,0,79.53,41.88Z"></path><polygon xmlns="http://www.w3.org/2000/svg" points="50.75 95.04 94.25 75.71 94.25 67.35 50.75 86.68 50.75 95.04"></polygon><path xmlns="http://www.w3.org/2000/svg" d="M30,55.72a.79.79,0,0,1,.39.11,35,35,0,0,0,14,4.74,16.86,16.86,0,0,1,2.78-6.64.75.75,0,0,1,1.24.85A15.5,15.5,0,0,0,45.61,65c.17,2.57-1.29,3.67-2.58,4.64s-2.68,2-2.73,4.89c1.08.35,6.39-1,9.93-3.62,1.42-1.07,3-2.7,2.48-4.45-1.82-6.2,3.73-11.71,4-11.95a.75.75,0,0,1,1.06,0,.75.75,0,0,1,0,1.06,15.93,15.93,0,0,0-3.09,4.69c4.77-.92,8.73-2.92,11-5.7,6.17-7.61,4.82-18.2-3.81-29.8l-.23-.3c-1-1.42-1.09-3.72-.12-5.86A5.53,5.53,0,0,1,65.81,15c2.83-.26,3.44-5.65,3.44-7-.08-.1-.67-.5-4.19-.22C63,8,58.3,6.54,57.77,6.37c-.34-.1-8.33-2.58-11.12,4.86-1.62,4.29-1.82,9.74-2,14.55a63.72,63.72,0,0,1-.46,6.67c-.47,3.12-4.47,5-9.1,7.21-4,1.9-8.59,4.06-11.06,7.28a38.18,38.18,0,0,0-6.29,13.49l12-4.66A.86.86,0,0,1,30,55.72ZM55,8.12a3,3,0,1,1-3,3A3,3,0,0,1,55,8.12Z"></path><circle xmlns="http://www.w3.org/2000/svg" cx="55" cy="11.13" r="1.5"></circle></g><g id="SvgjsG1092" featureKey="nameFeature-0" transform="matrix(1.4379132905236676,0,0,1.4379132905236676,84.43958984309496,-1.3775517952132024)" fill="#000000"><path d="M18.301 25.273 c3.2227 0.85938 5.3711 3.0078 5.3711 6.9727 c0 4.6289 -2.9297 7.7539 -8.4961 7.7539 l-11.309 0 l0 -27.988 l8.8672 0 c5.7031 0 8.9258 2.9688 8.9258 7.5781 c0 2.5391 -1.1328 4.6094 -3.3594 5.6836 z M12.773 16.289 l-4.0039 0 l0 7.4219 l4.3945 0 c2.5 0 3.8086 -1.6797 3.8086 -3.7891 c0 -2.0703 -1.4258 -3.6328 -4.1992 -3.6328 z M14.258 35.625 c3.1641 0 4.5117 -1.8555 4.5117 -3.9258 c0 -2.1484 -1.3672 -4.0234 -4.668 -4.0234 l-5.332 0 l0 7.9492 l5.4883 0 z M37.48021875 40.39063 c-6.0938 0 -10.566 -3.8672 -10.566 -10.313 c0 -6.3867 4.4336 -10.254 10.566 -10.254 c6.1523 0 10.566 3.8672 10.566 10.254 c0 6.4453 -4.4531 10.313 -10.566 10.313 z M37.42221875 36.4648 c3.3789 0 5.7813 -2.5195 5.7813 -6.3867 c0 -3.8281 -2.4023 -6.3672 -5.7813 -6.3672 c-3.2813 0 -5.6641 2.5391 -5.6641 6.3672 c0 3.8672 2.3828 6.3867 5.6641 6.3867 z M68.1831875 34.4531 c0 2.7539 0.23438 4.1406 0.50781 5.0195 l0 0.52734 l-4.6289 0 l-0.46875 -2.2266 c-1.5039 1.8359 -4.0234 2.6172 -6.3477 2.6172 c-3.1445 0 -6.0938 -1.4648 -6.0938 -5.4883 c0 -4.082 2.9883 -5.4688 7.207 -6.3477 l3.3008 -0.68359 c1.3477 -0.29297 1.8555 -0.80078 1.8555 -1.6602 c0 -2.2266 -1.875 -2.9297 -3.6523 -2.9297 c-2.1094 0 -3.75 0.87891 -4.1016 3.2031 l-4.3359 -0.82031 c0.78125 -3.9648 3.7305 -5.8203 8.6914 -5.8203 c3.9648 0 8.0664 1.3281 8.0664 7.0508 l0 7.5586 z M58.7499875 37.0117 c3.0469 0 5 -1.8945 5 -6.2891 l-4.8047 1.2305 c-1.8945 0.41016 -3.125 1.0547 -3.125 2.6172 c0 1.6602 1.3086 2.4414 2.9297 2.4414 z M78.7109 23.457 c0.97656 -1.875 3.5547 -3.457 6.4063 -3.4766 l0 4.4141 c-4.082 0 -6.1914 1.3867 -6.1914 5.6641 l0 9.9414 l-4.9023 0 l0 -19.785 l4.6875 0 l0 3.2422 z M102.851875 10 l4.8633 0 l0 30 l-4.6289 0 l-0.13672 -2.9688 c-1.1523 2.168 -3.6328 3.418 -6.4648 3.418 c-5.1563 0 -9.4336 -3.9258 -9.4336 -10.313 s4.2969 -10.313 9.4336 -10.313 c2.7539 0 5.1758 1.1914 6.3672 3.2227 l0 -13.047 z M97.577875 36.3672 c3.1836 0 5.6445 -2.5391 5.6445 -6.2305 s-2.4805 -6.2305 -5.6445 -6.2305 c-3.1445 0 -5.6445 2.4023 -5.6445 6.2305 s2.5 6.2305 5.6445 6.2305 z M138.5743125 20.215 l5.0586 0 l-6.8945 19.805 l-4.4922 0 l-4.8438 -13.789 l-4.8633 13.789 l-4.5508 0 l-6.7578 -19.805 l5.0391 0 l4.3555 13.594 l4.8828 -13.594 l3.75 0 l4.9023 13.574 z M162.7144375 34.4531 c0 2.7539 0.23438 4.1406 0.50781 5.0195 l0 0.52734 l-4.6289 0 l-0.46875 -2.2266 c-1.5039 1.8359 -4.0234 2.6172 -6.3477 2.6172 c-3.1445 0 -6.0938 -1.4648 -6.0938 -5.4883 c0 -4.082 2.9883 -5.4688 7.207 -6.3477 l3.3008 -0.68359 c1.3477 -0.29297 1.8555 -0.80078 1.8555 -1.6602 c0 -2.2266 -1.875 -2.9297 -3.6523 -2.9297 c-2.1094 0 -3.75 0.87891 -4.1016 3.2031 l-4.3359 -0.82031 c0.78125 -3.9648 3.7305 -5.8203 8.6914 -5.8203 c3.9648 0 8.0664 1.3281 8.0664 7.0508 l0 7.5586 z M153.2812375 37.0117 c3.0469 0 5 -1.8945 5 -6.2891 l-4.8047 1.2305 c-1.8945 0.41016 -3.125 1.0547 -3.125 2.6172 c0 1.6602 1.3086 2.4414 2.9297 2.4414 z M168.55465 40 l0 -30 l4.9219 0 l0 30 l-4.9219 0 z M192.5975 40 l-6.6992 -8.5742 l-1.3281 0 l0 8.5742 l-4.9219 0 l0 -30 l4.9219 0 l0 17.949 l1.1914 0 l6.4258 -7.7344 l5.5664 0 l-7.8516 9.1406 l8.6914 10.645 l-5.9961 0 z"></path></g>
			</g>
		</svg>
	